# xmcd CD database file
#
# Track frame offsets:
#	183
#	14723
#	29143
#	51928
#	68815
#	84908
#	104118
#	119753
#	147763
#	167750
#	187970
#	208033
#	223465
#	237065
#	260968
#	272743
#	292880
#	308218
#
# Disc length: 4253 seconds
#
# Revision: 1
# Processed by: cddbd v1.5.2PL0 Copyright (c) Steve Scherf et al.
# Submitted via: CDex 1.51
#
DISCID=23109b12
DTITLE=Marty Paich - Vol. 251 - Marty Paich- Marty Paich
DYEAR=1995
DGENRE=Jazz
TTITLE0=It Don't Mean A Thing
TTITLE1=Just In Time
TTITLE2=Moanin'
TTITLE3=I've Grown Accustomed To Her Face
TTITLE4=It's All Right With Me
TTITLE5=Things Ain't Want They Used To Be
TTITLE6=Move
TTITLE7=I Love Paris
TTITLE8=No More
TTITLE9=Love For Sale
TTITLE10=Warm Valley
TTITLE11=Groovin' High
TTITLE12=Four Brothers
TTITLE13=Walkin'
TTITLE14=Doggin' Around
TTITLE15=Swingin' The Blues
TTITLE16=All The Things You Are
TTITLE17=Marty's Blues
EXTD=YEAR: 1995
EXTT0=
EXTT1=
EXTT2=
EXTT3=
EXTT4=
EXTT5=
EXTT6=
EXTT7=
EXTT8=
EXTT9=
EXTT10=
EXTT11=
EXTT12=
EXTT13=
EXTT14=
EXTT15=
EXTT16=
EXTT17=
PLAYORDER=
